ffmpeg version 2.1.1 Copyright (c) 2000-2013 the FFmpeg developers
  built on Dec 20 2014 10:34:55 with gcc 4.7 (Debian 4.7.2-5)
  configuration: --enable-gpl --enable-nonfree --enable-postproc --enable-pthreads --enable-x11grab --enable-swscale --enable-version3 --enable-shared --disable-yasm --enable-filter=movie --enable-frei0r --enable-libdc1394 --enable-libfaac --enable-libmp3lame --enable-libx264 --enable-libxvid --enable-libfreetype --enable-libvorbis --enable-libgsm --enable-libopencore-amrnb --enable-libopencore-amrwb --enable-libopenjpeg --enable-librtmp --enable-libschroedinger --enable-libspeex --enable-libtheora --enable-libvpx --enable-libvo-amrwbenc --enable-libvo-aacenc --enable-libaacplus --enable-libxavs --enable-bzlib --enable-openssl --enable-gnutls --enable-openal --enable-libv4l2 --enable-libpulse --enable-libmodplug --enable-libass --enable-libcdio --enable-vdpau --enable-libbluray
  libavutil      52. 48.101 / 52. 48.101
  libavcodec     55. 39.101 / 55. 39.101
  libavformat    55. 19.104 / 55. 19.104
  libavdevice    55.  5.100 / 55.  5.100
  libavfilter     3. 90.100 /  3. 90.100
  libswscale      2.  5.101 /  2.  5.101
  libswresample   0. 17.104 /  0. 17.104
  libpostproc    52.  3.100 / 52.  3.100
Input #0, avi, from '/var/www/business-supermarket.com/web/www/temp/0778428001426343063.avi':
  Metadata:
    encoder         : VirtualDubMod 1.5.10.2 (build 2540/release)
  Duration: 00:00:54.60, start: 0.000000, bitrate: 923 kb/s
    Stream #0:0: Video: mpeg4 (Advanced Simple Profile) (XVID / 0x44495658), yuv420p, 640x360 [SAR 1:1 DAR 16:9], 25 tbr, 25 tbn, 25 tbc
    Stream #0:1: Audio: mp3 (U[0][0][0] / 0x0055), 48000 Hz, stereo, s16p, 128 kb/s
Please use -b:a or -b:v, -b is ambiguous
Output #0, flv, to '/var/www/business-supermarket.com/web/www/upload/users/suniel_2/videos/0778428001426343063.flv':
  Metadata:
    encoder         : Lavf55.19.104
    Stream #0:0: Video: flv1 (flv) ([2][0][0][0] / 0x0002), yuv420p, 512x384 [SAR 4:3 DAR 16:9], q=2-31, 1000 kb/s, 1k tbn, 30 tbc
    Stream #0:1: Audio: mp3 (libmp3lame) ([2][0][0][0] / 0x0002), 44100 Hz, stereo, s16p, 128 kb/s
Stream mapping:
  Stream #0:0 -> #0:0 (mpeg4 -> flv)
  Stream #0:1 -> #0:1 (mp3 -> libmp3lame)
Press [q] to stop, [?] for help
[mpeg4 @ 0xa8caa0] Video uses a non-standard and wasteful way to store B-frames ('packed B-frames'). Consider using a tool like VirtualDub or avidemux to fix it.
frame=   62 fps=0.0 q=2.3 size=     509kB time=00:00:03.05 bitrate=1364.1kbits/s    frame=  137 fps=137 q=2.7 size=    1036kB time=00:00:06.03 bitrate=1406.8kbits/s    frame=  211 fps=140 q=3.8 size=    1452kB time=00:00:09.01 bitrate=1319.4kbits/s    frame=  285 fps=142 q=5.2 size=    1819kB time=00:00:11.96 bitrate=1245.5kbits/s    frame=  356 fps=142 q=6.5 size=    2198kB time=00:00:14.81 bitrate=1215.8kbits/s    frame=  428 fps=142 q=6.7 size=    2600kB time=00:00:17.66 bitrate=1206.3kbits/s    frame=  500 fps=142 q=7.6 size=    2989kB time=00:00:20.55 bitrate=1190.8kbits/s    frame=  570 fps=142 q=6.4 size=    3375kB time=00:00:23.38 bitrate=1182.5kbits/s    frame=  643 fps=142 q=6.1 size=    3758kB time=00:00:26.28 bitrate=1171.4kbits/s    frame=  710 fps=142 q=5.9 size=    4129kB time=00:00:28.97 bitrate=1167.4kbits/s    frame=  779 fps=141 q=7.0 size=    4499kB time=00:00:31.71 bitrate=1162.2kbits/s    frame=  849 fps=141 q=6.4 size=    4881kB time=00:00:34.50 bitrate=1158.7kbits/s    frame=  920 fps=141 q=8.4 size=    5280kB time=00:00:37.35 bitrate=1158.0kbits/s    frame=  987 fps=141 q=8.4 size=    5656kB time=00:00:40.04 bitrate=1157.0kbits/s    frame= 1056 fps=140 q=6.7 size=    6034kB time=00:00:42.79 bitrate=1155.2kbits/s    frame= 1127 fps=140 q=5.5 size=    6423kB time=00:00:45.63 bitrate=1152.9kbits/s    frame= 1197 fps=140 q=4.8 size=    6815kB time=00:00:48.43 bitrate=1152.8kbits/s    frame= 1267 fps=140 q=6.6 size=    7198kB time=00:00:51.25 bitrate=1150.5kbits/s    frame= 1338 fps=140 q=6.4 size=    7594kB time=00:00:54.07 bitrate=1150.5kbits/s    frame= 1365 fps=141 q=5.6 Lsize=    7732kB time=00:00:54.63 bitrate=1159.4kbits/s    
video:6824kB audio:854kB subtitle:0 global headers:0kB muxing overhead 0.707595%
